- 
http://www.Speed.Cd 
       
http://www.Speed.Cd       the fast  and The Hottest Private Tracker on the net

(((--Registration will be open on june every weekend--)))

Please Seed back to make the speed Faster!!!

------------------nfo--------------------------
-[img]http://img221.imageshack.us/img221/3905/greenlanternemeraldknigb.jpg[/img]

[color=blue][size=4][b]Green.Lantern.Emerald.Knights.2011.BDRip.XVID.AC3.HQ.Hive-CM8[/b][/size][/color]


[b]Thx Hive

CM8 Doing It Right The First Time :D

Source Bluray

Video: 720x400 @bitrate 2200 2pass
Audio: English DTS to AC3 5.1 @384
Sample: yes included
Subs: yes english in srt /subs[/b]


[url]http://www.imdb.com/title/tt1683043/[/url]


General
Complete name                    : Green.Lantern.Emerald.Knights.2011.BDRip.XVID.AC3.HQ.Hive-CM8.avi
Format                           : AVI
Format/Info                      : Audio Video Interleave
File size                        : 1.52 GiB
Duration                         : 1h 23mn
Overall bit rate                 : 2 595 Kbps
Writing application              : Nandub v1.0rc2
Writing library                  : Nandub build 1853/release

Video
ID                               : 0
Format                           : MPEG-4 Visual
Format profile                   : Advanced Simple@L5
Format settings, BVOP            : 2
Format settings, QPel            : Yes
Format settings, GMC             : No warppoints
Format settings, Matrix          : Default (H.263)
Muxing mode                      : Packed bitstream
Codec ID                         : XVID
Codec ID/Hint                    : XviD
Duration                         : 1h 23mn
Bit rate                         : 2 202 Kbps
Width                            : 720 pixels
Height                           : 400 pixels
Display aspect ratio             : 16:9
Frame rate                       : 23.976 fps
Color space                      : YUV
Chroma subsampling               : 4:2:0
Bit depth                        : 8 bits
Scan type                        : Progressive
Compression mode                 : Lossy
Bits/(Pixel*Frame)               : 0.319
Stream size                      : 1.29 GiB (85%)
Writing library                  : XviD 1.2.1 (UTC 2008-12-04)

Audio
ID                               : 1
Format                           : AC-3
Format/Info                      : Audio Coding 3
Mode extension                   : CM (complete main)
Codec ID                         : 2000
Duration                         : 1h 23mn
Bit rate mode                    : Constant
Bit rate                         : 384 Kbps
Channel(s)                       : 6 channels
Channel positions                : Front: L C R, Side: L R, LFE
Sampling rate                    : 48.0 KHz
Bit depth                        : 16 bits
Compression mode                 : Lossy
Stream size                      : 230 MiB (15%)
Alignment                        : Split accross interleaves
Interleave, duration             : 42 ms (1.00 video frame)
Interleave, preload duration     : 500 ms


Nathan Fillion	 ... 	Hal Jordan (voice)
Jason Isaacs	... 	Sinestro (voice)
Elisabeth Moss	... 	Arisia (voice)
Kelly Hu	... 	Laira (voice)
Arnold Vosloo	... 	Abin Sur (voice


As the home planet of the Green Lantern Corps faces a battle with an ancient enemy, 
Hal Jordan prepares new recruit Arisia for the coming conflict by relating stories 
of the first Green Lantern and several of Hal's comrades. 

 
[img]http://img232.imageshack.us/img232/9854/gggrgggrgr.png[/img]
[img]http://img40.imageshack.us/img40/4218/ggrgggrgr.png[/img]
[img]http://img546.imageshack.us/img546/5421/79189226.png[/img]
[img]http://img847.imageshack.us/img847/2938/grgggrgr.png[/img]
[img]http://img849.imageshack.us/img849/3962/grggrgr.png[/img]
[img]http://img94.imageshack.us/img94/7926/grggrr.png[/img]
[img]http://img94.imageshack.us/img94/5027/grgrn.png[/img]

cover:

[img]http://img51.imageshack.us/img51/7347/greenlanternemeraldknig.jpg[/img]






Greetz

ViSiON,SANTi,MAGNET,THC,T0XiC,iNK,LKRG,IMAGiNE,WBZ,FLAWL3SS,NOVA
Vik,OneTwo,Rapeseed,D2U,SAFC,goldadvance,MEMORY100,KaN1vE,Unevano,Pinnz,Wayne,Mr Hive
and all P2P groups 
Great Work Guys :D

FYS

CM8@hushmail.com